<svg width="210" height="56" viewBox="0 0 210 56" fill="none" xmlns="http://www.w3.org/2000/svg">
<path d="M69.428 40.0798L65.8246 39.477C64.0714 39.1887 63.1935 38.4733 63.1935 37.3281C63.1935 36.6074 63.4949 36.044 64.0976 35.643C64.7004 35.2395 65.4761 35.0403 66.4248 35.0403C67.3734 35.0403 68.2277 35.2657 68.8619 35.719C69.4961 36.1724 69.8132 36.8014 69.8132 37.6059H75.0702C75.0702 35.533 74.263 33.8715 72.6487 32.6189C71.0344 31.3662 68.9196 30.7399 66.299 30.7399C63.6783 30.7399 61.4954 31.3819 59.8653 32.666C58.2353 33.9501 57.4203 35.6509 57.4203 37.7631C57.4203 39.4325 57.9523 40.8476 59.0215 42.0085C60.0881 43.1695 61.7391 43.9373 63.9771 44.3199L67.4887 44.9541C68.2723 45.0878 68.875 45.3734 69.2969 45.8137C69.7189 46.2513 69.9311 46.8095 69.9311 47.4909C69.9311 48.2954 69.6062 48.9191 68.9563 49.362C68.3064 49.8049 67.4101 50.0276 66.2649 50.0276C64.9965 50.0276 63.9928 49.7525 63.2486 49.1995C62.5069 48.6492 62.1348 47.8368 62.1348 46.7649H56.8149C56.8149 49.0632 57.6693 50.9055 59.3805 52.2945C61.0918 53.6808 63.3403 54.3752 66.1234 54.3752C68.9065 54.3752 71.341 53.686 73.0837 52.3102C74.8265 50.9344 75.6965 49.1183 75.6965 46.8593C75.6965 45.0851 75.1645 43.5992 74.0953 42.3964C73.0287 41.1961 71.4694 40.4257 69.4175 40.085L69.428 40.0798ZM78.8334 54.0188H95.3642V49.5192H84.2135V44.6763H92.1016V40.4545H84.2135V35.5199H95.3642V31.0517H78.8334V54.0188V54.0188ZM116.725 42.8602C117.519 41.7098 117.915 40.3208 117.915 38.6934C117.915 36.3532 117.126 34.4952 115.548 33.1194C113.971 31.7409 111.759 31.0543 108.913 31.0543H98.488V54.0214H103.871V46.2906H108.216L111.759 54.0214H117.713L113.444 45.4389C114.835 44.8729 115.928 44.0133 116.722 42.8655L116.725 42.8602ZM111.101 41.2957C110.365 41.8225 109.34 42.0845 108.03 42.0845H103.871V35.6824H108.03C109.34 35.6824 110.362 35.9523 111.101 36.4947C111.837 37.0346 112.207 37.8417 112.207 38.9162C112.207 39.9907 111.837 40.7716 111.101 41.2983V41.2957ZM129.776 47.8551L124.547 31.0596H118.439L126.636 54.0267H133.07L140.895 31.0596H134.97L129.773 47.8551H129.776ZM151.92 30.7503C148.631 30.7503 145.974 31.796 143.948 33.8899C141.922 35.9837 140.911 38.8638 140.911 42.5353C140.911 46.2068 141.914 49.1156 143.924 51.2043C145.937 53.2929 148.6 54.3359 151.92 54.3359C155.24 54.3359 157.876 53.2929 159.892 51.2043C161.907 49.1156 162.916 46.2225 162.916 42.5274C162.916 38.8323 161.912 35.9444 159.907 33.8663C157.903 31.7881 155.238 30.7503 151.92 30.7503V30.7503ZM155.848 47.8709C154.899 49.1497 153.589 49.7891 151.92 49.7891C150.25 49.7891 148.979 49.1497 148.015 47.8709C147.051 46.592 146.569 44.8126 146.569 42.5274C146.569 40.2422 147.043 38.4707 147.992 37.2076C148.94 35.9444 150.248 35.3128 151.92 35.3128C153.592 35.3128 154.876 35.9523 155.832 37.2311C156.792 38.51 157.269 40.2789 157.269 42.5353C157.269 44.7916 156.797 46.592 155.848 47.8709ZM185.393 38.9476C185.393 36.5472 184.599 34.6289 183.011 33.2006C181.425 31.7724 179.216 31.0596 176.394 31.0596H165.94V54.0267H171.32V46.8043H176.331C179.093 46.8043 181.294 46.1124 182.935 44.7314C184.573 43.3503 185.393 41.4215 185.393 38.9476ZM178.674 41.4215C177.977 42.0321 177.015 42.3335 175.788 42.3335H171.318V35.685H175.788C176.994 35.685 177.95 35.9654 178.658 36.5288C179.363 37.0922 179.717 37.9073 179.717 38.9791C179.717 40.0509 179.368 40.8135 178.674 41.4215V41.4215ZM197.521 31.0596H191.52L183.291 54.0267H188.86L190.637 48.8614H198.525L200.273 54.0267H206.133L197.519 31.0596H197.521ZM192.031 44.8388L194.631 37.37L197.167 44.8388H192.034H192.031Z" fill="#A2A8AC"/>
<path d="M65.411 8.45148C67.9268 8.44362 69.6957 9.52593 70.7151 11.7037H73.1628C71.8053 8.17369 69.2214 6.4074 65.411 6.4074C62.814 6.4074 60.7332 7.2591 59.1687 8.9625C57.6042 10.6659 56.8232 13.0742 56.8232 16.1875C56.8232 19.3008 57.6042 21.7118 59.1687 23.4126C60.7332 25.116 62.814 25.9677 65.411 25.9677C69.2214 25.9677 71.8053 24.2014 73.1628 20.6714H70.7151C69.7062 22.8492 67.9373 23.9367 65.411 23.9367C63.5215 23.9367 62.0042 23.2606 60.8564 21.9136C59.7085 20.564 59.1346 18.6562 59.1346 16.1928C59.1346 13.7294 59.7085 11.8216 60.8564 10.472C62.0042 9.12236 63.5215 8.44886 65.411 8.44886V8.45148ZM83.4723 6.40478C80.8805 6.40478 78.7998 7.25648 77.2379 8.95988C75.6734 10.6633 74.8924 13.0716 74.8924 16.1849C74.8924 19.2982 75.6734 21.7092 77.2379 23.41C78.8024 25.1134 80.8805 25.9651 83.4723 25.9651C86.0641 25.9651 88.1449 25.1134 89.7068 23.41C91.2713 21.7066 92.0548 19.2982 92.0548 16.1849C92.0548 13.0716 91.2713 10.6633 89.7068 8.95988C88.1423 7.25648 86.0641 6.40478 83.4723 6.40478V6.40478ZM88.0269 21.9136C86.8844 23.2632 85.367 23.9367 83.4802 23.9367C81.5933 23.9367 80.0734 23.2606 78.9255 21.9136C77.7777 20.564 77.2038 18.6562 77.2038 16.1928C77.2038 13.7294 77.7777 11.8216 78.9255 10.472C80.0734 9.12236 81.5907 8.44886 83.4802 8.44886C85.3696 8.44886 86.8844 9.12236 88.0269 10.472C89.1695 11.8216 89.7435 13.7294 89.7435 16.1928C89.7435 18.6562 89.1722 20.564 88.0269 21.9136ZM108.048 22.8492H107.915L98.381 6.67208H95.1105V25.703H97.4245V9.52593H97.5581L107.092 25.703H110.362V6.67208H108.048V22.8492ZM124.139 16.2138C123.319 15.9045 122.433 15.6136 121.479 15.3437C120.525 15.0738 119.642 14.8353 118.827 14.6257C118.012 14.4186 117.331 14.0544 116.786 13.5381C116.241 13.0192 115.968 12.3641 115.968 11.5674C115.968 10.6476 116.322 9.89806 117.032 9.3189C117.742 8.73975 118.746 8.44886 120.051 8.44886C122.231 8.441 123.641 9.29794 124.278 11.0223H126.592C126.246 9.53641 125.502 8.39382 124.359 7.59716C123.217 6.80049 121.781 6.40215 120.051 6.40215C118.075 6.40215 116.513 6.89221 115.37 7.8697C114.225 8.84719 113.657 10.0789 113.657 11.5648C113.657 12.5658 113.861 13.4123 114.267 14.1068C114.676 14.8012 115.2 15.3358 115.842 15.7054C116.484 16.0775 117.197 16.3867 117.983 16.6357C118.767 16.882 119.556 17.0969 120.342 17.2803C121.131 17.4612 121.846 17.663 122.488 17.8909C123.13 18.1163 123.657 18.4491 124.063 18.8946C124.469 19.3375 124.674 19.8852 124.674 20.5404C124.674 21.5415 124.281 22.3565 123.489 22.988C122.7 23.6222 121.553 23.9367 120.046 23.9367C117.65 23.9367 116.11 22.8911 115.418 20.8051H113.104C113.45 22.4063 114.225 23.6668 115.431 24.5892C116.636 25.5091 118.175 25.9703 120.046 25.9703C122.189 25.9703 123.882 25.4409 125.124 24.3848C126.364 23.3287 126.985 22.0472 126.985 20.543C126.985 19.4371 126.715 18.5173 126.173 17.7835C125.633 17.0497 124.951 16.5282 124.134 16.219L124.139 16.2138ZM160.849 16.4234C161.894 15.4721 162.418 14.1251 162.418 12.3824C162.418 10.6397 161.879 9.30842 160.796 8.25493C159.714 7.20144 158.257 6.67732 156.422 6.67732H149.072V25.703H151.386V18.098H154.656L160.107 25.703H162.686L157.235 18.098C158.6 17.9303 159.806 17.3721 160.851 16.4182L160.849 16.4234ZM151.386 16.0539V8.71354H156.291C157.486 8.71354 158.422 9.0516 159.096 9.72248C159.769 10.396 160.107 11.2817 160.107 12.3824C160.107 13.4831 159.769 14.3715 159.096 15.0423C158.422 15.7158 157.486 16.0513 156.291 16.0513H151.386V16.0539ZM137.433 6.40478C134.839 6.40478 132.761 7.25648 131.199 8.95988C129.635 10.6633 128.854 13.0716 128.854 16.1849C128.854 19.2982 129.635 21.7092 131.199 23.41C132.761 25.1134 134.842 25.9651 137.433 25.9651C140.025 25.9651 142.106 25.1134 143.671 23.41C145.235 21.7066 146.016 19.2982 146.016 16.1849C146.016 13.0716 145.232 10.6633 143.671 8.95988C142.106 7.25648 140.028 6.40478 137.433 6.40478V6.40478ZM141.985 21.9136C140.843 23.2632 139.326 23.9367 137.439 23.9367C135.552 23.9367 134.032 23.2606 132.884 21.9136C131.736 20.564 131.162 18.6562 131.162 16.1928C131.162 13.7294 131.736 11.8216 132.884 10.472C134.032 9.12236 135.549 8.44886 137.439 8.44886C139.328 8.44886 140.84 9.12236 141.985 10.472C143.131 11.8216 143.702 13.7294 143.702 16.1928C143.702 18.6562 143.131 20.564 141.985 21.9136ZM173.166 8.44886C175.681 8.441 177.45 9.52331 178.47 11.701H180.915C179.56 8.17107 176.973 6.40478 173.163 6.40478C170.566 6.40478 168.485 7.25648 166.921 8.95988C165.356 10.6633 164.573 13.0716 164.573 16.1849C164.573 19.2982 165.356 21.7092 166.921 23.41C168.485 25.1134 170.566 25.9651 173.163 25.9651C176.973 25.9651 179.56 24.1988 180.915 20.6688H178.47C177.458 22.8465 175.692 23.9341 173.166 23.9341C171.279 23.9341 169.759 23.258 168.611 21.911C167.463 20.5614 166.889 18.6535 166.889 16.1902C166.889 13.7268 167.463 11.819 168.611 10.4694C169.759 9.11974 171.276 8.44624 173.166 8.44624V8.44886ZM183.588 25.6978H185.902V6.6747H183.588V25.703V25.6978ZM203.798 8.95726C202.234 7.25386 200.155 6.40215 197.561 6.40215C194.967 6.40215 192.891 7.25386 191.327 8.95726C189.762 10.6607 188.981 13.069 188.981 16.1823C188.981 19.2956 189.762 21.7066 191.327 23.4073C192.891 25.1108 194.969 25.9625 197.561 25.9625C200.153 25.9625 202.234 25.1108 203.798 23.4073C205.363 21.7039 206.146 19.2956 206.146 16.1823C206.146 13.069 205.363 10.6607 203.798 8.95726V8.95726ZM202.118 21.911C200.973 23.2606 199.458 23.9341 197.569 23.9341C195.679 23.9341 194.165 23.258 193.017 21.911C191.869 20.5614 191.295 18.6535 191.295 16.1902C191.295 13.7268 191.869 11.819 193.017 10.4694C194.165 9.11974 195.682 8.44624 197.569 8.44624C199.456 8.44624 200.973 9.11974 202.118 10.4694C203.261 11.819 203.835 13.7268 203.835 16.1902C203.835 18.6535 203.263 20.5614 202.118 21.911ZM141.723 1.61166H139.132L137.093 4.85599H139.111L141.726 1.61166H141.723Z" fill="#C8202F"/>
<path d="M44.6813 6.63278H26.1667C22.7572 6.63278 19.9951 9.39491 19.9951 12.8043V23.5305H26.9738V14.741C26.9738 14.1173 27.477 13.6141 28.1007 13.6141H42.7447C43.3658 13.6141 43.8716 14.1199 43.8716 14.741V29.385C43.8716 30.0061 43.3684 30.5092 42.7447 30.5092H19.9951V31.3662C19.9951 34.7468 22.7363 37.4879 26.1169 37.4879H44.6813C48.0908 37.4879 50.8529 34.7258 50.8529 31.319V12.8043C50.8529 9.39491 48.0908 6.63278 44.6813 6.63278Z" fill="#A2A8AC"/>
<path d="M26.9741 37.4906V46.2827C26.9741 46.9038 26.4683 47.407 25.8472 47.407H11.2032C10.5821 47.407 10.0764 46.9038 10.0764 46.2827V31.6387C10.0764 31.015 10.5795 30.5118 11.2032 30.5118H33.9554V29.6628C33.9554 26.2769 31.2117 23.5331 27.8258 23.5331H9.22728C5.84144 23.5331 3.09766 26.2796 3.09766 29.6628V48.2613C3.09766 51.6471 5.84144 54.3909 9.22728 54.3909H27.8232C31.209 54.3909 33.9528 51.6471 33.9528 48.2613V37.4932H26.9741V37.4906Z" fill="#C8202F"/>
</svg>
